<svg width="54" height="55" viewBox="0 0 54 55" fill="none" xmlns="http://www.w3.org/2000/svg">
<path d="M46.0502 7.93325C40.9552 2.81742 34.181 0 26.9756 0C19.7701 0 12.996 2.81742 7.90095 7.93325C2.80596 13.0491 0 19.8509 0 27.0858C0 34.3206 2.80596 41.1224 7.90095 46.2382C12.996 51.3541 19.7701 54.1715 26.9756 54.1715C34.181 54.1715 40.9552 51.3541 46.0502 46.2382C51.1453 41.1224 53.9512 34.3206 53.9512 27.0858C53.9512 19.8509 51.1453 13.0491 46.0502 7.93325ZM26.9756 52.6516C12.9359 52.6516 1.51366 41.1829 1.51366 27.0858C1.51366 20.0326 4.37306 13.6375 8.9889 9.0074L15.4657 15.5106C15.6134 15.659 15.8071 15.7332 16.0008 15.7332C16.1945 15.7332 16.3882 15.659 16.536 15.5106C16.8316 15.2139 16.8316 14.7327 16.536 14.4359L10.0925 7.96613C14.5895 3.95814 20.5038 1.51984 26.9756 1.51984C41.0154 1.51984 52.4375 12.9887 52.4375 27.0858C52.4375 33.5839 50.0092 39.5224 46.0176 44.0377L32.9159 30.8826C32.6203 30.586 32.1411 30.586 31.8455 30.8826C31.55 31.1794 31.55 31.6605 31.8455 31.9574L44.9804 45.1459C40.3692 49.7806 34.0001 52.6516 26.9756 52.6516Z" fill="black"/>
<path d="M32.8228 41.4425L30.1218 40.2295C29.5479 39.9719 29.1471 39.1525 29.1471 38.2369V31.016C29.6495 30.6938 30.078 30.2597 30.3929 29.7523C34.1961 28.2779 36.597 24.4533 36.2577 20.35C36.2572 20.3433 36.2566 20.3367 36.2558 20.33L35.2825 11.4154C35.2405 11.03 34.9163 10.7383 34.5302 10.7383H19.4207C19.0346 10.7383 18.7104 11.03 18.6683 11.4154L17.6951 20.33C17.6944 20.3367 17.6938 20.3433 17.6932 20.35C17.354 24.4533 19.7548 28.2779 23.5579 29.7523C23.873 30.2597 24.3014 30.6938 24.8038 31.016V38.2369C24.8038 39.1525 24.403 39.9719 23.8291 40.2296L21.1274 41.4428C20.2611 41.8187 20.0711 42.5275 20.1721 43.0211C20.3001 43.6475 20.8753 44.0849 21.5708 44.0849H32.3801C33.0756 44.0849 33.6507 43.6475 33.7788 43.0211C33.8798 42.5274 33.6897 41.8184 32.8228 41.4425ZM33.8519 12.2581L34.1463 14.9553H19.8046L20.099 12.2581H33.8519ZM22.3357 42.5651L24.447 41.6171C25.5658 41.1147 26.3175 39.7563 26.3175 38.2369V30.5702C26.3175 30.2769 26.1493 30.0097 25.8855 29.8839C25.3998 29.6521 24.9963 29.2617 24.7495 28.7846C24.6607 28.613 24.5102 28.4818 24.3285 28.4179C21.0228 27.2528 18.9153 23.9919 19.2009 20.4855L19.6387 16.4751H34.3122L34.7501 20.4855C35.0356 23.992 32.9281 27.2528 29.6224 28.4179C29.4406 28.4819 29.2901 28.6131 29.2014 28.7846C28.9545 29.2617 28.5512 29.6521 28.0654 29.8839C27.8015 30.0097 27.6335 30.2769 27.6335 30.5702V38.2369C27.6335 39.7563 28.3851 41.1147 29.5039 41.617L31.6151 42.5651H22.3357Z" fill="black"/>
<line x1="8.59527" y1="7.46967" x2="45.5953" y2="44.4697" stroke="black" stroke-width="1.5"/>
</svg>
