<?xml version="1.0" encoding="UTF-8"?>
<svg id="Layer_1" data-name="Layer 1" xmlns="http://www.w3.org/2000/svg" version="1.1" viewBox="0 0 728 112">
  <defs>
    <style>
      .cls-1 {
        fill: #fffaea;
        stroke-width: 0px;
      }
    </style>
  </defs>
  <path class="cls-1" d="M2.4,101L32.4,19.2h12.5l30.1,81.8h-12.3l-8.1-23.9H22.3l-8.4,23.9H2.4ZM33.5,45.4l-8,22.9h26.2l-7.8-22.9c-2.8-7.9-5-17.4-5-17.4h-.3s-2.4,9.8-5.1,17.4ZM85.6,101V19.2h38.3c14.6,0,24.5,9,24.5,22.5s-4.1,17.1-15,20.5v.3c9.2,2.8,11.9,8.2,12.7,20,1,12.9,2.1,16.8,3.7,17.9v.6h-12c-1.9-1.5-2.1-5.3-3-18.4-.8-11.5-5.6-15.7-16.3-15.7h-21.8v34.1h-11.2ZM96.8,28.8v29h23.4c11.1,0,16.6-5.6,16.6-14.5s-4.5-14.5-16.1-14.5h-24ZM156,29.1v-9.9h65.1v9.9h-26.9v71.9h-11.3V29.1h-26.8ZM233.2,101V19.2h11.2v81.8h-11.2ZM290.4,102.8c-23.1,0-34-13-34.3-28.3h11.1c.8,12.2,8.2,19.6,23.3,19.6s18.4-5.8,18.4-15.2-6-11.4-20.3-16.7c-12.4-4.6-21.8-9.7-21.8-22.7s10.2-22,27.1-22,28.8,11.2,29.7,24.3h-10.6c-.8-9.1-7.3-15.8-19.4-15.8s-16,4.9-16,13,5.1,10,17.5,14.6c14.4,5.4,25.2,10.1,25.2,25.1s-11.8,24.1-29.9,24.1ZM328,101l29.9-81.8h12.5l30.1,81.8h-12.3l-8.1-23.9h-32.2l-8.4,23.9h-11.5ZM359,45.4l-8,22.9h26.2l-7.8-22.9c-2.8-7.9-5-17.4-5-17.4h-.3s-2.4,9.8-5.1,17.4ZM411.2,101V19.2h11.8l33.5,51.3c4,6.1,9.1,16.3,9.1,16.3h.3s-.8-10.7-.8-17.5V19.2h10.6v81.8h-11.7l-33.4-51.3c-4-6.2-9.4-16.2-9.4-16.2h-.2s.7,10.7.7,17.3v50.2h-10.6ZM485.8,101l29.7-81.8h16.3l29.8,81.8h-16.3l-6.5-19.5h-31l-6.6,19.5h-15.4ZM518,51.4l-6.5,18.9h23.5l-6.3-18.9c-3.2-9.7-5.2-19.7-5.2-19.7h-.2s-2.8,11.9-5.4,19.7ZM571.7,101V19.2h11.2v71.6h42.4v10.2h-53.6Z"/>
  <path class="cls-1" d="M667.2,50.6c0-3.7,1.4-7.1,3.7-10.4-4.2-3.2-7.3-7.7-7.3-12.6s5.3-11.2,12.6-11.6c6.6-.3,15.3,2.9,20.7,9.4,3.7-.7,8.5-1.2,12.6-1,11.6.5,17.5,5.3,17.5,10.7s-11.9,13.8-25.5,13.8-17.3-1.5-23.8-4.8c-.8,1.2-1.9,3.1-2.5,5.1-.5,1.7-.8,3.7-.5,5.4,1.9-.3,6-.7,8.3-.5,4.9.2,9.5,1.4,9.2,4.2-.3,2.4-5.1,3.2-9.3,3.2s-11.4-1.7-13.6-4.6c-4.6,1.7-10.7,5.6-15.5,10.2-5.4,5.1-9.9,12.1-10,18.7-.3,9.2,4.9,12.4,13.9,12.4s18.4-4.4,25-8.8c4.4-3.1,10-8,12.1-9.9,1.4-1.2,1.9-1.4,2.2-1,.3.3.2.8-1.5,2.4-2.2,2-8.3,7.5-12.1,10-7,4.9-15.6,9.2-25.7,9.7-14.6.7-24.3-4.1-24.3-15.1s13.6-24.8,35-29.8c-.8-1.5-1.2-3.1-1.2-5.3ZM701.2,47.2c11.2,0,21.4-4.4,21.8-12.1.2-4.1-2.9-9-12.9-9.4-3.6-.2-7.7.7-11.6,2,1,2,1.9,4.8,2.2,7.5.3,2.9.2,4.4-.3,4.4s-.2-.8-.9-3.4c-.7-2.7-2.2-5.4-3.7-7.5-4.2,2-8.7,5.3-12.4,8.7-1,.8-3.4,3.4-4.8,5.3,6.1,3.1,14.5,4.4,22.6,4.4ZM693.8,26.2c-4.2-5.3-11.6-8.8-17.9-8.5-5.8.3-10.7,3.7-10.7,9.9s2.7,8,6.8,11.4c.8-1.2,2.5-2.9,3.6-3.7,4.8-4.1,11-7.1,18.2-9ZM675.1,55.9c.7,2.7,4.6,4.1,8,4.2,3.2.2,6.1-.5,6.1-2.2s-3.4-2.2-6.1-2.4c-1.9-.2-5.8,0-8,.3Z"/>
</svg>