<svg width="54" height="54" viewBox="0 0 54 54" fill="none" xmlns="http://www.w3.org/2000/svg">
<path d="M27 0C12.1121 0 0 12.1121 0 27C0 41.8879 12.1121 54 27 54C41.8879 54 54 41.8879 54 27C54 12.1121 41.8879 0 27 0ZM27 52.65C12.8567 52.65 1.35 41.1433 1.35 27C1.35 12.8567 12.8567 1.35 27 1.35C41.1433 1.35 52.65 12.8567 52.65 27C52.65 41.1433 41.1433 52.65 27 52.65Z" fill="black"/>
<path d="M45.8681 26.4018C45.8338 26.0956 45.5792 25.8537 45.2571 25.8211C44.848 25.7784 35.1872 24.8498 31.0609 28.7705C28.2501 31.4417 27.8902 35.5714 29.9763 38.6187C28.8338 39.7359 27.8975 40.7312 27.2141 41.4874V27.602C31.456 27.2679 34.8019 23.8864 34.8019 19.7705C34.8019 14.2251 27.2786 8.39087 26.9582 8.14508C26.7063 7.95164 26.3462 7.95164 26.0943 8.14508C25.7738 8.39087 18.2505 14.2251 18.2505 19.7705C18.2505 23.8864 21.5965 27.2679 25.8384 27.602V41.5458C25.1506 40.7825 24.197 39.7661 23.0238 38.6188C23.8931 37.354 24.3629 35.8778 24.3629 34.3319C24.3629 32.2309 23.502 30.256 21.9388 28.7705C17.8129 24.8495 8.1507 25.779 7.74258 25.8211C7.42053 25.8537 7.16594 26.0956 7.13168 26.4018C7.088 26.7905 6.10922 35.9716 10.2355 39.8929C11.8491 41.4263 13.9678 42.1927 16.0872 42.1927C18.2062 42.1927 20.3256 41.426 21.9388 39.8929C22.0158 39.8197 22.0832 39.74 22.1569 39.6645C24.1082 41.5806 25.4231 43.1033 25.8384 43.5958V44.3463C25.8384 44.7073 26.1463 45 26.5263 45C26.9061 45 27.2141 44.7073 27.2141 44.3463V43.5336C27.6824 42.9812 28.9705 41.5021 30.8428 39.6635C30.9166 39.7393 30.9834 39.8192 31.0609 39.8929C32.6742 41.426 34.7935 42.1927 36.9126 42.1927C39.032 42.1927 41.1513 41.426 42.7646 39.8929C46.8909 35.9716 45.9121 26.7905 45.8681 26.4018ZM22.0248 37.6619C19.3908 35.1913 15.8997 32.3237 11.969 30.1357C11.6418 29.9534 11.2199 30.0575 11.0278 30.3693C10.8357 30.6809 10.9459 31.0815 11.2737 31.2637C15.1239 33.4069 18.5903 36.2812 21.19 38.734C21.1152 38.8121 21.0452 38.8933 20.9661 38.9685C18.2757 41.5253 13.8986 41.5253 11.2082 38.9685C8.0718 35.9879 8.31394 29.0594 8.45399 27.0778C10.5392 26.9444 17.8304 26.7149 20.9661 29.6949C22.2693 30.9337 22.9871 32.5804 22.9871 34.3319C22.9871 35.5234 22.6476 36.6629 22.0248 37.6619ZM26.5263 16.5574C26.1463 16.5574 25.8384 16.8502 25.8384 17.2111V26.2946C22.3556 25.9654 19.6263 23.1654 19.6263 19.7705C19.6263 15.5555 24.9527 10.819 26.5263 9.51186C28.0998 10.819 33.4261 15.5555 33.4261 19.7705C33.4261 23.1654 30.6969 25.9654 27.2141 26.2946V17.2111C27.2141 16.8502 26.9061 16.5574 26.5263 16.5574ZM41.7919 38.9685C39.1015 41.5253 34.7246 41.5253 32.0336 38.9685C31.954 38.8928 31.8846 38.8113 31.8096 38.7329C34.4082 36.2812 37.8739 33.408 41.7264 31.2637C42.0542 31.0815 42.1644 30.6809 41.9723 30.3693C41.7801 30.0575 41.3589 29.9519 41.0311 30.1357C37.1011 32.3232 33.6106 35.1901 30.9768 37.6604C29.4173 35.1467 29.7643 31.8518 32.0336 29.6949C35.17 26.7149 42.4602 26.9451 44.5457 27.0778C44.6858 29.0594 44.9283 35.9879 41.7919 38.9685Z" fill="black"/>
</svg>
