<svg width="294" height="93" viewBox="0 0 294 93" fill="none" xmlns="http://www.w3.org/2000/svg">
<path d="M15.766 35.675C6.22604 35.675 0.0160353 28.385 0.0160353 18.26C0.0160353 8.405 5.95604 0.799998 15.901 0.799998C19.816 0.799998 22.966 1.925 25.216 3.77C27.601 5.705 29.041 8.45 29.491 11.645H24.901C24.136 7.55 20.941 4.805 15.811 4.805C8.70104 4.805 4.69604 10.565 4.69604 18.26C4.69604 26.27 9.10604 31.67 15.856 31.67C21.931 31.67 24.856 27.575 25.261 22.805H29.851C29.806 26.135 28.231 29.825 25.846 32.12C23.506 34.46 20.086 35.675 15.766 35.675ZM50.4097 35.72C40.2847 35.72 34.0297 28.25 34.0297 18.26C34.0297 8.225 40.2847 0.799998 50.4097 0.799998C60.4897 0.799998 66.8347 8.225 66.8347 18.26C66.8347 28.25 60.4897 35.72 50.4097 35.72ZM50.4097 31.67C58.0147 31.67 62.0647 25.91 62.0647 18.26C62.0647 10.565 58.0147 4.76 50.4097 4.76C42.8047 4.76 38.7097 10.565 38.7097 18.26C38.7097 25.91 42.8047 31.67 50.4097 31.67ZM72.4674 35V1.52H77.2824L91.0074 22.49C92.6274 24.965 94.7424 29.15 94.7424 29.15H94.8774C94.8774 29.15 94.5624 24.785 94.5624 21.995V1.52H98.8824V35H94.1124L80.4324 14.03C78.8124 11.51 76.6074 7.415 76.6074 7.415H76.5174C76.5174 7.415 76.7874 11.78 76.7874 14.48V35H72.4674ZM103.752 5.57V1.52H130.392V5.57H119.367V35H114.732V5.57H103.752ZM128.612 35L140.852 1.52H145.982L158.312 35H153.272L149.942 25.235H136.757L133.337 35H128.612ZM141.302 12.275L138.017 21.635H148.727L145.532 12.275C144.407 9.035 143.507 5.165 143.507 5.165H143.372C143.372 5.165 142.382 9.17 141.302 12.275ZM175.551 35.675C166.011 35.675 159.801 28.385 159.801 18.26C159.801 8.405 165.741 0.799998 175.686 0.799998C179.601 0.799998 182.751 1.925 185.001 3.77C187.386 5.705 188.826 8.45 189.276 11.645H184.686C183.921 7.55 180.726 4.805 175.596 4.805C168.486 4.805 164.481 10.565 164.481 18.26C164.481 26.27 168.891 31.67 175.641 31.67C181.716 31.67 184.641 27.575 185.046 22.805H189.636C189.591 26.135 188.016 29.825 185.631 32.12C183.291 34.46 179.871 35.675 175.551 35.675ZM191.862 5.57V1.52H218.502V5.57H207.477V35H202.842V5.57H191.862ZM223.376 35V1.52H247.181V5.57H227.966V15.695H245.336V19.52H227.966V30.815H247.676V35H223.376ZM251.636 35V30.725L267.971 9.89C269.411 8.045 271.976 5.39 271.976 5.39V5.255C271.976 5.255 268.286 5.435 265.991 5.435H252.851V1.52H277.106V5.12L260.996 25.955C259.376 27.98 256.586 30.95 256.586 30.95V31.085C256.586 31.085 260.366 30.905 262.841 30.905H277.871V35H251.636ZM280.518 24.065V20.285H293.028V24.065H280.518ZM86.8376 91V57.52H91.6526L105.378 78.49C106.998 80.965 109.113 85.15 109.113 85.15H109.248C109.248 85.15 108.933 80.785 108.933 77.995V57.52H113.253V91H108.483L94.8026 70.03C93.1826 67.51 90.9776 63.415 90.9776 63.415H90.8876C90.8876 63.415 91.1576 67.78 91.1576 70.48V91H86.8376ZM126.927 87.1C126.927 88.375 127.227 89.2 127.752 89.95C127.977 90.25 128.127 90.325 128.052 90.475C127.977 90.625 127.677 90.475 127.452 90.25C126.627 89.425 126.102 88.15 126.102 86.425C126.102 82.075 128.202 77.95 131.052 74.2C136.452 67.525 143.727 63.1 148.077 63.55C150.702 63.85 151.377 66.1 151.077 68.95C150.852 71.8 148.677 77.05 145.452 81.025C140.352 87.25 132.027 92.275 125.202 92.125C120.777 92.05 117.627 89.65 117.627 84.925C117.627 79.975 120.477 74.275 125.352 69.4C131.127 63.7 140.202 59.275 148.002 59.65C150.852 59.8 153.327 61.075 153.552 63.775C153.702 65.2 153.102 66.7 152.427 67.45C152.127 67.825 151.527 68.275 151.377 68.05C151.302 67.825 151.527 67.825 151.977 67.15C152.427 66.475 152.952 65.275 152.727 63.85C152.502 61.9 150.402 60.7 148.002 60.625C141.327 60.325 132.177 67.075 128.277 71.425C123.852 76.45 121.227 82.3 121.227 86.575C121.227 89.2 122.577 91.3 125.952 91.45C131.127 91.675 137.052 87.55 143.052 80.05C146.277 76 149.277 70.825 149.652 67.15C149.877 65.5 149.277 64.45 148.002 64.3C144.177 63.925 137.502 68.65 132.477 74.95C128.877 79.525 126.927 84.175 126.927 87.1ZM163.109 91.495C155.594 91.495 150.194 88.165 150.194 80.11V57.52H154.784V79.705C154.784 85.195 157.844 87.58 163.199 87.58C168.374 87.58 171.434 85.195 171.434 79.705V57.52H176.024V80.11C176.024 88.165 170.444 91.495 163.109 91.495ZM195.143 91.675C185.783 91.675 181.148 86.545 180.788 80.155H185.333C185.873 85.195 189.203 87.985 195.278 87.985C199.733 87.985 202.973 86.005 202.973 81.955C202.973 77.59 199.103 76.555 193.253 75.25C187.268 73.99 182.183 72.28 182.183 65.845C182.183 60.22 186.908 56.89 193.793 56.89C202.028 56.89 205.718 61.03 206.528 66.745H202.073C201.488 62.695 198.563 60.49 193.838 60.49C189.428 60.49 186.548 62.29 186.548 65.62C186.548 69.265 190.193 70.3 195.233 71.335C201.713 72.64 207.608 74.305 207.608 81.775C207.608 88.12 202.388 91.675 195.143 91.675Z" fill="#221F1F"/>
</svg>
