<svg width="54" height="54" viewBox="0 0 54 54" fill="none" xmlns="http://www.w3.org/2000/svg">
<path d="M27 0C32.3401 0 37.5603 1.58352 42.0004 4.55032C46.4405 7.51712 49.9012 11.7339 51.9447 16.6675C53.9883 21.6011 54.523 27.0299 53.4812 32.2674C52.4394 37.5049 49.8679 42.3159 46.0919 46.0919C42.3159 49.8679 37.5049 52.4394 32.2674 53.4812C27.0299 54.523 21.6011 53.9883 16.6675 51.9447C11.7339 49.9012 7.51712 46.4405 4.55032 42.0004C1.58352 37.5603 0 32.3401 0 27C0.00876617 19.8418 2.85622 12.9794 7.9178 7.9178C12.9794 2.85622 19.8418 0.00876688 27 0ZM27 1.32515C23.5604 1.32408 20.1559 2.01648 16.9899 3.36096C13.8239 4.70544 10.9615 6.67441 8.57374 9.15018L13.0329 13.2515L17.492 17.3529C17.5027 17.131 17.5248 16.9099 17.5583 16.6903C17.5799 16.5572 17.6416 16.434 17.7351 16.3369C17.8286 16.2398 17.9496 16.1736 18.0817 16.147C19.9443 15.8153 21.8634 16.0459 23.5943 16.8096C23.1188 15.7729 22.905 14.6353 22.9715 13.4967C23.2233 9.83264 26.4832 7.53349 26.6223 7.44736C26.7332 7.37042 26.865 7.32919 27 7.32919C27.135 7.32919 27.2667 7.37042 27.3777 7.44736C27.5168 7.54675 30.7767 9.83264 31.0285 13.4967C31.095 14.6353 30.8812 15.7729 30.4056 16.8096C32.1365 16.0459 34.0557 15.8153 35.9183 16.147C36.0504 16.1736 36.1713 16.2398 36.2649 16.3369C36.3584 16.434 36.4201 16.5572 36.4417 16.6903C36.4417 16.8559 37.1043 20.7917 34.6196 23.5148C34.0954 24.0893 33.4741 24.5671 32.7843 24.9261C34.2625 24.5835 35.794 24.5384 37.2898 24.7936C37.421 24.8197 37.5413 24.885 37.6347 24.9808C37.7282 25.0766 37.7904 25.1984 37.8132 25.3303C37.8132 25.5224 38.5487 30.0213 35.7328 33.1354C35.5671 33.321 35.3816 33.4866 35.2027 33.6523L35.3816 33.8179C36.559 33.6981 37.7472 33.7405 38.9131 33.9438C39.0444 33.9699 39.1646 34.0352 39.258 34.131C39.3515 34.2268 39.4137 34.3486 39.4366 34.4805C39.5718 35.5156 39.5852 36.563 39.4763 37.6012L46.3274 43.8957C49.5838 40.1867 51.701 35.6169 52.4248 30.7345C53.1485 25.8522 52.4482 20.8647 50.4078 16.3705C48.3674 11.8763 45.0736 8.06624 40.9216 5.39754C36.7695 2.72884 31.9357 1.31482 27 1.32515ZM38.1777 35.1563C37.707 35.1023 37.2335 35.0757 36.7597 35.0768L38.2108 36.402C38.2225 35.9864 38.2115 35.5706 38.1777 35.1563ZM34.9443 35.2027C33.3959 35.3973 31.9322 36.019 30.717 36.9983C28.7293 38.7011 27.6692 41.4839 27.6626 45.2871C31.4591 45.4262 34.2883 44.5053 36.0574 42.544C37.1409 41.2809 37.8318 39.7287 38.0451 38.0783L34.9443 35.2027ZM34.7455 32.241C36.6471 30.1472 36.6405 27.159 36.5543 26.0128C35.4081 25.8802 32.4265 25.7676 30.2599 27.5897C29.9773 27.8303 29.7198 28.0989 29.4913 28.3914L34.2221 32.7379C34.4062 32.5827 34.5809 32.4168 34.7455 32.241ZM27 19.3207C28.9215 17.4191 29.8292 15.5109 29.7033 13.6358C29.5509 11.2837 27.7885 9.5411 27 8.87852C26.2115 9.5411 24.4557 11.2704 24.2967 13.6292C24.1642 15.5043 25.0719 17.4191 27 19.3207ZM27.6626 24.6213C30.3747 24.6876 32.3624 24.025 33.6258 22.6336C35.2093 20.891 35.2424 18.413 35.1762 17.3794C34.1492 17.28 31.6712 17.2204 29.8756 18.7045C28.4378 19.9303 27.6626 21.9114 27.6626 24.6147V24.6213ZM27.6626 25.9465V26.7217L28.5107 27.5035C29.1463 26.7306 29.9361 26.0988 30.8297 25.6483C29.9106 25.86 28.9701 25.9645 28.027 25.9597L27.6626 25.9465ZM27.6626 28.5239V28.7492C27.6626 28.6962 27.7222 28.6498 27.7487 28.6034L27.6626 28.5239ZM28.7426 29.5178C27.9848 31.0951 27.6145 32.8306 27.6626 34.5799C29.5366 34.7079 31.4111 34.3376 33.0957 33.5065L28.7426 29.5178ZM27.6626 35.8918V38.8071C28.1981 37.7239 28.9489 36.7613 29.8689 35.9779C29.9551 35.905 30.0412 35.8454 30.134 35.7791C29.4882 35.8651 28.8375 35.9094 28.186 35.9116L27.6626 35.8918ZM24.131 35.9779C25.0511 36.7613 25.8018 37.7239 26.3374 38.8071V35.8918H25.814C25.1625 35.8897 24.5118 35.8454 23.866 35.7593C23.9521 35.8454 24.0449 35.905 24.131 35.9779ZM23.2829 36.9983C20.6856 34.8118 17.0945 35.0105 15.8223 35.1563C15.7163 36.4351 15.6633 40.0329 17.9426 42.544C19.7117 44.5053 22.5342 45.4262 26.3374 45.2871C26.3374 41.4839 25.3038 38.7011 23.2829 36.9983ZM26.3374 34.5799C26.3374 31.373 25.4429 29.0209 23.7401 27.5897C21.5735 25.7676 18.5919 25.8802 17.4456 26.0128C17.3595 27.159 17.3529 30.1472 19.2545 32.241C20.7519 33.8908 23.1372 34.666 26.3374 34.5799ZM24.5816 26.5693C25.2976 27.175 25.8933 27.91 26.3374 28.7359V27.2915L24.8201 25.8935C24.2642 25.8514 23.7125 25.765 23.1703 25.6351C23.6748 25.8918 24.1483 26.2052 24.5816 26.5693ZM25.3701 24.5816C25.6815 24.5816 26.0326 24.5816 26.3374 24.5816C26.3374 21.8783 25.5622 19.8972 24.1244 18.6913C22.3156 17.1674 19.8442 17.2336 18.8238 17.3661C18.7974 17.7699 18.7974 18.1749 18.8238 18.5786L25.3701 24.5816ZM19.2942 20.7917C19.5352 21.4621 19.9017 22.0805 20.3742 22.6137C21.0952 23.3781 22.0118 23.9304 23.0245 24.2105L19.2942 20.7917ZM27 52.6748C30.4396 52.6759 33.8441 51.9835 37.0101 50.639C40.1761 49.2945 43.0385 47.3256 45.4262 44.8498L39.2179 39.1384C38.8725 40.7285 38.1268 42.2041 37.0513 43.4253C35.1298 45.5521 32.2145 46.6255 28.3782 46.6255C27.9939 46.6255 27.5963 46.6255 27.1921 46.5858C27.1315 46.612 27.0661 46.6256 27 46.6256C26.9339 46.6256 26.8685 46.612 26.8078 46.5858C26.4037 46.5858 26.0061 46.6255 25.6218 46.6255C21.7855 46.6255 18.8702 45.5521 16.9487 43.4253C13.722 39.8606 14.5303 34.6859 14.5634 34.4672C14.5863 34.3354 14.6485 34.2135 14.7419 34.1177C14.8354 34.0219 14.9556 33.9567 15.0869 33.9305C16.4002 33.7012 17.7409 33.6744 19.0623 33.851C18.7865 33.6273 18.5274 33.3837 18.2871 33.1222C15.4712 30.0081 16.1801 25.5092 16.2066 25.317C16.2295 25.1852 16.2917 25.0634 16.3851 24.9676C16.4786 24.8718 16.5988 24.8065 16.7301 24.7804C18.2258 24.5252 19.7574 24.5702 21.2356 24.9129C20.5457 24.5538 19.9244 24.0761 19.4002 23.5016C18.3568 22.2936 17.7153 20.7907 17.5649 19.2015L7.69251 10.1308C4.44554 13.8392 2.33591 18.4047 1.6161 23.2809C0.896278 28.1571 1.59677 33.1374 3.63373 37.6259C5.67069 42.1143 8.95784 45.9208 13.1018 48.5897C17.2457 51.2585 22.071 52.6769 27 52.6748Z" fill="black"/>
</svg>
