<?xml version="1.0" encoding="UTF-8"?>
<svg id="Layer_2" data-name="Layer 2" xmlns="http://www.w3.org/2000/svg" version="1.1" viewBox="0 0 871.7 97.6">
  <defs>
    <style>
      .cls-1 {
        fill: #fffaea;
        stroke-width: 0px;
      }
    </style>
  </defs>
  <g id="Layer_1-2" data-name="Layer 1-2">
    <path class="cls-1" d="M131.7,91l27.2-74.4h11.4l27.4,74.4h-11.2l-7.4-21.7h-29.3l-7.6,21.7h-10.5,0ZM159.9,40.5l-7.3,20.8h23.8l-7.1-20.8c-2.5-7.2-4.5-15.8-4.5-15.8h-.3s-2.2,8.9-4.6,15.8h0ZM233.3,92.1c-16.7,0-28.7-7.4-28.7-25.3V16.6h10.2v49.3c0,12.2,6.8,17.5,18.7,17.5s18.3-5.3,18.3-17.5V16.6h10.2v50.2c0,17.9-12.4,25.3-28.7,25.3h0ZM271.6,25.6v-9h59.2v9h-24.5v65.4h-10.3V25.6h-24.4ZM341.7,91V16.6h52.9v9h-42.7v22.5h38.6v8.5h-38.6v25.1h43.8v9.3h-54,0ZM499.4,97.6l-12.1-9.8c-5.3,3.1-11.7,4.8-18.9,4.8-22.5,0-36.4-16.6-36.4-38.8s13.9-38.8,36.4-38.8,36.4,16.5,36.4,38.8-4,22-11,29l10.7,8.6-5.1,6.2ZM468.4,83.8c4.2,0,7.9-.8,11.1-2.3l-9.6-7.8,5-6.2,11.4,9.2c5.2-5.4,8-13.5,8-22.9,0-17.1-9-30-25.9-30s-26,12.9-26,30,9.1,30,26,30h0ZM591.2,91l27.2-74.4h11.4l27.4,74.4h-11.2l-7.4-21.7h-29.3l-7.6,21.7h-10.5ZM619.4,40.5l-7.3,20.8h23.8l-7.1-20.8c-2.5-7.2-4.5-15.8-4.5-15.8h-.3s-2.2,8.9-4.6,15.8h0ZM666.9,91V16.6h10.2v65.1h38.5v9.3h-48.7ZM726.5,91V16.6h10.2v74.4h-10.2ZM747.7,25.6v-9h59.2v9h-24.5v65.4h-10.3V25.6h-24.4ZM817.7,91V16.6h52.9v9h-42.7v22.5h38.6v8.5h-38.6v25.1h43.8v9.3h-54ZM841,12.5l5.3-12.5h11.4l-8.9,12.5h-7.8Z"/>
    <path class="cls-1" d="M94.5,18.9c-.8-3-13.9,2.1-36.4,1.4-10.2-.3-21.8,1.2-29.8,8.1-7.1,6.1-10.8,18.8-3.7,26.3.7.8,1.5,1.4,2.4,2.1,1.5,1.1,3.1,2.1,4.8,2.8.4.2,3.8,1.3,3.7,1.7-.2.5-2,.5-3.2.2-8.7-2.6-14.3-10-14.6-17.7-.2-3.9.6-7.8,2.3-11.2s4.5-6.6,7.7-8.9,8.5-4.5,13.1-5.5,12.3-1.4,18.5-1.3c6.2.1,15.6.1,23.5-.1s3.7-.1,5.5-.2c3.5-.2,7-.4,10.5-1.1s3.3-1.2,3.4.2c0,1.4-.5.8-.8,1-.6.5-1.2,1-1.8,1.6-4.2,4.1-8,8-12.2,13.4-5.1,6.3-8.7,11.4-11.9,15.5h24.3c2.7-3.2,6-7.1,14.3-14.8,8-7.5,15.5-12.9,21.4-16.3,5.4-3.1,11.4-5.1,17-5.1s9.9,3.1,10.7,5.4c.5,1.4.3,2.4-.2,2.6-.3.2-.3-.5-.9-1.5-1.4-2.7-4.1-4.8-9.5-4.8s-11.2,2.7-15.5,5.8c-4.4,3.2-8.7,7.1-15.5,14.5-4.4,4.8-9.5,11-11.9,14.3,4.6.2,10.5.3,13.6.7,1.4.2,3.9.3,3.9.8s-2.6.5-3.7.5c-6,0-11.6,0-15.5.2-7.7,9.7-18.5,23.8-18.5,30.1s1.5,2.9,3.2,2.9c2.9,0,6.8-1.5,12.1-5.3,2.4-1.7,7.1-5.8,9.7-8,1-.9,1.7-1.2,2-.9.3.3,0,.9-1,1.9-2.2,2-7.1,6.3-9.9,8.3-2.6,1.9-9.2,6.8-15.8,6.8s-8.2-2.6-8.2-7.5c0-8.8,11.9-23.3,16.2-28.4l-24,.2c-.6,0-2.5,3.1-3,3.6-1,1.2-2,2.5-3.1,3.7-2,2.4-4,4.7-6.1,7-3.9,4.3-8.1,8.4-12.7,12-4.3,3.4-9,6.3-14.2,8.3-3.6,1.4-8,2.1-10.5,2.5-1,.2-2.3.4-3.8.5h-3.6c-2.8,0-8.1-.3-11.8-4.1-.6-.6-3.4-3.6-3.5-8.1,0-1.2,0-5.1,2.9-7.7,3.9-3.6,11.5-2.3,10.8,4-.2,2-1.2,3.7-2.7,5.1s-2.2,2.7-2.2,4.3c0,3.6,4.9,4.9,8.5,4.9,18.2,0,34.7-23.8,44.4-36.2-2.7,0-6.6.2-12.6.3-1.2,0-3.6.2-3.2-.9.2-.7,2.5-.8,4.9-1,3.1-.3,7.6-.5,12.6-.7,3.1-4.2,8.2-10.3,15.5-16.5,8.9-7.5,14.6-9.7,14-11.7h.1Z"/>
    <path class="cls-1" d="M510.9,91c-1-1.3,0-3.4.4-6.3,1-7.1,8.5-16.2,21.6-30.8,10.7-12.2,17-19.9,18.9-26,1.4-5.1-3.1-6.8-7.3-6.8-8.7,0-20.1,5.4-29.6,14.8-7,6.8-13.6,15.3-13.6,22.1s2,7,6.1,7,4.8-.8,6.1-1.7c1.7-1,2-2,2.5-1.7s-.8,1.9-2,2.7c-1.7,1.2-3.9,2.2-7,2.2-4.9-.2-8.2-3.1-8.5-8.3-.5-7.7,4.6-17.5,13.1-25.3,10.4-9.5,24.5-13.3,32.8-13.3s13.9,3.1,13.8,9.7c-.2,7.5-8,17-16.5,26.7-13.3,14.8-20.7,23.6-21.6,29.2-.5,2.7.7,3.9,2.4,4.1,4.1.5,12.4-4.6,18.7-9.2,10.4-7.6,16.1-13.4,25-23.8,4.9-5.6,17.8-19.9,31.1-30.3,2.9-2.2,10.2-7.5,13.8-7,3.1.3,2,4.1-1,7.7-3.7,4.1-9,8-12.8,10.7-5.4,4.1-8.7,6.3-15.5,11.9-1.7,2-3.4,4.1-5.4,6.6-2.1,2.7-4.3,5.4-6.3,8.2s-3.9,5.4-5.8,8.2-3.1,4.8-4.3,7.4-1.8,3.8-1.9,5.9,0,.8,0,1.1c.2.5.6,1,1,1.3.6.5,1.4.8,2.2.9s1.4,0,2.1-.2c1.4-.5,2.7-1.1,4-1.8s3.4-2,5-3.1c2.4-1.7,6-4.6,8.3-6.8,1.5-1.4,2.9-2.5,3.4-2,.3.5-.2,1-1.7,2.6-3.1,2.9-6.6,5.8-9,7.6-2.9,2.2-8.7,6.8-15,6.8s-8-2.6-8-7.5,3.6-10.9,7.5-16.3h0c-9.2,9.2-28,24.3-39.1,24.3-1.5,0-3.1,0-4.6-.2s-1.8-.3-2.6-.7c-1.1-.6-1.4-1.9-1.4-3.1s.2-1.8.4-2.6c.4-1.6,1-3.2,1.8-4.7M586.3,43.9c3.2-2.6,6.8-4.9,10-7.3,5.1-3.6,9.5-7.5,11.2-9.2,3.4-3.7,4.4-6.1,3.2-6.6-1.9-.7-5.6,2.5-9.2,6.5-4.9,5.1-10.2,10.7-15.3,16.7h0Z"/>
  </g>
</svg>