<svg width="34" height="39" viewBox="0 0 34 39" fill="none" xmlns="http://www.w3.org/2000/svg">
<path d="M29.7669 8.16379C29.5022 8.03052 29.2444 7.88443 28.9946 7.72608C28.2687 7.25906 27.6032 6.70883 27.0123 6.08722C25.5321 4.43987 24.9795 2.76877 24.7772 1.59985H24.7842C24.6151 0.627723 24.6848 0 24.697 0H17.9587V25.3515C17.9587 25.6908 17.9587 26.0284 17.9447 26.361C17.9447 26.4017 17.9395 26.439 17.9378 26.4848C17.9378 26.5018 17.9378 26.5221 17.9325 26.5408V26.5561C17.8618 27.4655 17.5624 28.344 17.0608 29.1143C16.5592 29.8847 15.8707 30.5233 15.0559 30.9739C14.2058 31.4445 13.2444 31.6912 12.2664 31.6898C9.12819 31.6898 6.58278 29.1993 6.58278 26.1235C6.58278 23.0459 9.12819 20.5554 12.2664 20.5554C12.8609 20.5554 13.4519 20.647 14.0168 20.8268L14.0255 14.1492C12.31 13.9338 10.5672 14.0669 8.90719 14.5399C7.24717 15.013 5.70596 15.8158 4.38083 16.8976C3.21945 17.8791 2.243 19.0504 1.49545 20.3586C1.21127 20.8353 0.137312 22.7541 0.00829758 25.8656C-0.0736437 27.63 0.472051 29.4623 0.731822 30.2172V30.2342C0.893961 30.6787 1.52857 32.1988 2.56068 33.4797C3.39299 34.5078 4.37638 35.411 5.47919 36.1602V36.1433L5.49488 36.1602C8.7551 38.3148 12.3727 38.174 12.3727 38.174C12.9986 38.1486 15.096 38.174 17.4775 37.0764C20.1188 35.8582 21.6216 34.0446 21.6216 34.0446C22.5825 32.9608 23.3465 31.7255 23.8811 30.392C24.4913 28.8311 24.6936 26.9615 24.6936 26.2151V12.7631C24.7755 12.8106 25.8651 13.5113 25.8651 13.5113C25.8651 13.5113 27.4342 14.4902 29.8803 15.1264C31.6342 15.5794 34 15.6761 34 15.6761V9.16645C33.1719 9.25467 31.4895 9.00019 29.7652 8.16549" fill="#FFFAEA"/>
</svg>
