<svg width="43" height="39" viewBox="0 0 43 39" fill="none" xmlns="http://www.w3.org/2000/svg">
<path d="M2 6.69362C2 5.36734 2.45655 4.09538 3.2692 3.15755C4.08186 2.21973 5.18406 1.69287 6.33333 1.69287H36.6667C37.8159 1.69287 38.9181 2.21973 39.7308 3.15755C40.5435 4.09538 41 5.36734 41 6.69362V31.6973C41 33.0236 40.5435 34.2956 39.7308 35.2334C38.9181 36.1712 37.8159 36.6981 36.6667 36.6981H6.33333C5.18406 36.6981 4.08186 36.1712 3.2692 35.2334C2.45655 34.2956 2 33.0236 2 31.6973V6.69362Z" stroke="#FFFAEA" stroke-width="3" stroke-linecap="round" stroke-linejoin="round"/>
<path d="M2 6.69336L21.5 21.6956L41 6.69336" stroke="#FFFAEA" stroke-width="3" stroke-linecap="round" stroke-linejoin="round"/>
</svg>
