<svg width="790" height="145" viewBox="0 0 790 145" fill="none" xmlns="http://www.w3.org/2000/svg">
<g clip-path="url(#clip0_67_284)">
<path d="M0 140.949V4.05101H28.6867V116.123H78.3683V140.968H0V140.949Z" fill="#FFFAEA"/>
<path d="M102.429 140.949V4.05101H131.115V140.968H102.429V140.949Z" fill="#FFFAEA"/>
<path d="M158.26 72.6022C158.26 27.9296 181.93 0 219.87 0C249.913 0 271.279 19.456 275.887 51.2136L249.318 56.2124C246.048 36.5706 235.272 24.8264 219.87 24.8264C199.655 24.8264 186.947 42.9258 186.947 72.5836C186.947 102.241 201.197 119.951 223.92 119.951C242.202 119.951 255.877 106.088 259.147 83.3615L286.105 87.7842C281.684 122.831 257.419 144.981 223.734 144.981C183.305 144.981 158.279 117.052 158.279 72.5836L158.26 72.6022Z" fill="#FFFAEA"/>
<path d="M300.895 49.2067C300.895 36.0688 310.426 26.6474 323.339 26.6474C336.252 26.6474 345.783 36.0688 345.783 49.2067C345.783 62.3446 336.363 71.543 323.339 71.543C310.315 71.543 300.783 62.1216 300.895 49.2067ZM335.917 49.2067C335.917 41.9038 330.641 36.5148 323.45 36.5148C316.26 36.5148 310.76 41.9038 310.76 49.2067C310.76 56.5097 316.149 61.6571 323.45 61.6571C330.752 61.6571 335.917 56.4911 335.917 49.2067ZM325.141 110.492L321.667 108.021L379.69 25.7369L383.388 28.2084L325.141 110.492ZM358.138 88.4903C358.25 75.3524 367.669 65.931 380.582 65.931C393.495 65.931 403.026 75.3524 403.026 88.4903C403.026 101.628 393.606 110.827 380.582 110.827C367.558 110.827 358.138 101.405 358.138 88.4903ZM393.161 88.4903C393.161 81.1874 387.884 75.7984 380.694 75.7984C373.503 75.7984 368.004 81.1874 368.004 88.4903C368.004 95.7933 373.28 100.941 380.694 100.941C388.107 100.941 393.161 95.7747 393.161 88.4903Z" fill="#FFFAEA"/>
<path d="M491.576 124.578L485.612 101.089C483.494 93.0059 477.92 87.2267 470.6 87.2267H453.47V140.949H424.783V4.05101H480.8C511.215 4.05101 530.482 20.4223 530.482 46.2149C530.482 63.5525 519.706 77.7867 501.219 82.228V82.4138C508.335 85.4985 511.809 91.4635 513.742 99.3611L518.164 117.461C519.13 121.883 521.043 124.782 524.518 124.782C527.212 124.782 530.11 122.85 532.804 119.189L539.92 133.237C533.752 140.169 524.518 144.22 515.079 144.22C502.371 144.22 494.475 136.322 491.595 124.578H491.576ZM453.451 66.823H478.478C492.524 66.823 501.776 58.9254 501.776 46.6052C501.776 34.2849 492.542 25.9971 478.478 25.9971H453.451V66.823Z" fill="#FFFAEA"/>
<path d="M561.844 140.949V4.05101H597.275L646.176 106.683H646.566V4.05101H673.525V140.968H637.908L589.007 38.7261H588.617V140.968H561.862L561.844 140.949Z" fill="#FFFAEA"/>
<path d="M704.887 140.949V4.05101H788.068V27.5394H732.626V60.2819H780.376V81.0759H732.626V117.665H790V140.968H704.906L704.887 140.949Z" fill="#FFFAEA"/>
</g>
<defs>
<clipPath id="clip0_67_284">
<rect width="790" height="145" fill="white"/>
</clipPath>
</defs>
</svg>
