<svg width="315" height="165" viewBox="0 0 315 165" fill="none" xmlns="http://www.w3.org/2000/svg">
<path d="M7.235 54V13.08H13.12L29.895 38.71C31.875 41.735 34.46 46.85 34.46 46.85H34.625C34.625 46.85 34.24 41.515 34.24 38.105V13.08H39.52V54H33.69L16.97 28.37C14.99 25.29 12.295 20.285 12.295 20.285H12.185C12.185 20.285 12.515 25.62 12.515 28.92V54H7.235ZM66.4816 54.88C54.1066 54.88 46.4616 45.75 46.4616 33.54C46.4616 21.275 54.1066 12.2 66.4816 12.2C78.8016 12.2 86.5566 21.275 86.5566 33.54C86.5566 45.75 78.8016 54.88 66.4816 54.88ZM66.4816 49.93C75.7766 49.93 80.7266 42.89 80.7266 33.54C80.7266 24.135 75.7766 17.04 66.4816 17.04C57.1866 17.04 52.1816 24.135 52.1816 33.54C52.1816 42.89 57.1866 49.93 66.4816 49.93ZM88.4404 18.03V13.08H121V18.03H107.525V54H101.86V18.03H88.4404ZM126.957 54V13.08H146.097C153.412 13.08 158.362 17.59 158.362 24.355C158.362 29.36 156.327 32.88 150.882 34.585V34.75C155.502 36.125 156.822 38.875 157.207 44.76C157.702 51.195 158.252 53.175 159.077 53.725V54H153.082C152.147 53.23 152.037 51.36 151.597 44.815C151.212 39.04 148.792 36.95 143.457 36.95H132.567V54H126.957ZM132.567 17.92V32.44H144.282C149.837 32.44 152.587 29.635 152.587 25.18C152.587 20.395 150.332 17.92 144.557 17.92H132.567ZM165.467 54V13.08H194.562V18.03H171.077V30.405H192.307V35.08H171.077V48.885H195.167V54H165.467ZM92.0471 122V81.08H97.6571V122H92.0471ZM121.239 122.825C109.799 122.825 104.134 116.555 103.694 108.745H109.249C109.909 114.905 113.979 118.315 121.404 118.315C126.849 118.315 130.809 115.895 130.809 110.945C130.809 105.61 126.079 104.345 118.929 102.75C111.614 101.21 105.399 99.12 105.399 91.255C105.399 84.38 111.174 80.31 119.589 80.31C129.654 80.31 134.164 85.37 135.154 92.355H129.709C128.994 87.405 125.419 84.71 119.644 84.71C114.254 84.71 110.734 86.91 110.734 90.98C110.734 95.435 115.189 96.7 121.349 97.965C129.269 99.56 136.474 101.595 136.474 110.725C136.474 118.48 130.094 122.825 121.239 122.825ZM138.714 86.03V81.08H171.274V86.03H157.799V122H152.134V86.03H138.714ZM193.239 122.88C180.864 122.88 173.219 113.75 173.219 101.54C173.219 89.275 180.864 80.2 193.239 80.2C205.559 80.2 213.314 89.275 213.314 101.54C213.314 113.75 205.559 122.88 193.239 122.88ZM193.239 117.93C202.534 117.93 207.484 110.89 207.484 101.54C207.484 92.135 202.534 85.04 193.239 85.04C183.944 85.04 178.939 92.135 178.939 101.54C178.939 110.89 183.944 117.93 193.239 117.93ZM220.309 122V81.08H225.919V122H220.309ZM234.486 122V81.08H253.626C260.941 81.08 265.891 85.59 265.891 92.355C265.891 97.36 263.856 100.88 258.411 102.585V102.75C263.031 104.125 264.351 106.875 264.736 112.76C265.231 119.195 265.781 121.175 266.606 121.725V122H260.611C259.676 121.23 259.566 119.36 259.126 112.815C258.741 107.04 256.321 104.95 250.986 104.95H240.096V122H234.486ZM240.096 85.92V100.44H251.811C257.366 100.44 260.116 97.635 260.116 93.18C260.116 88.395 257.861 85.92 252.086 85.92H240.096ZM272.997 122V81.08H302.092V86.03H278.607V98.405H299.837V103.08H278.607V116.885H302.697V122H272.997Z" fill="#221F1F"/>
<path d="M7.235 122V81.08H12.845V98.295H33.965V81.08H39.63V122H33.965V102.86H12.845V122H7.235Z" fill="#FFFAEA"/>
<path d="M55.8 83.7C52 85.1 45.2 84.9 34.4 84.5C22.8 84.1 12.6 88.6 12.6 98.5C12.6 101.9 15 106.5 19.9 108.1C20.8 108.4 21.2 108.3 21.1 108.6C21 108.9 19.9 108.9 19.2 108.7C14.1 107.2 10.8 102.8 10.6 98.3C10.3 89.2 17.9 82 33.1 82.4C39.9 82.6 53.6 84.4 56.8 82.6C58.2 81.8 59.4 81 60.1 81.4C60.7 81.8 59.8 82.2 58.8 83.2C56.3 85.6 54.1 87.9 51.6 91.1C48.6 94.8 46.5 97.8 44.6 100.2H58.9C60.5 98.3 62.4 96 67.3 91.5C72 87.1 76.4 83.9 79.9 81.9C83.1 80.1 86.6 78.9 89.9 78.9C93.6 78.9 95.7 80.7 96.2 82.1C96.5 82.9 96.4 83.5 96.1 83.6C95.9 83.7 95.9 83.3 95.6 82.7C94.8 81.1 93.2 79.9 90 79.9C86.8 79.9 83.4 81.5 80.9 83.3C78.3 85.2 75.8 87.5 71.8 91.8C69.2 94.6 66.2 98.3 64.8 100.2C67.5 100.3 71 100.4 72.8 100.6C73.6 100.7 75.1 100.8 75.1 101.1C75.1 101.5 73.6 101.4 72.9 101.4C69.4 101.4 66.1 101.4 63.8 101.5C59.3 107.2 52.9 115.5 52.9 119.2C52.9 120.4 53.8 120.9 54.8 120.9C56.5 120.9 58.8 120 61.9 117.8C63.3 116.8 66.1 114.4 67.6 113.1C68.2 112.6 68.6 112.4 68.8 112.6C69 112.8 68.8 113.1 68.2 113.7C66.9 114.9 64 117.4 62.4 118.6C60.9 119.7 57 122.6 53.1 122.6C50.2 122.6 48.3 121.1 48.3 118.2C48.3 113 55.3 104.5 57.8 101.5L43.7 101.6C34 113.5 25.1 123.8 10.9 123.8C6.1 123.8 0.9 121.7 0.9 116C0.9 113.3 3.1 110.7 6.1 110.8C8.1 110.9 9.5 112.4 9.3 114.5C9.2 115.7 8.6 116.7 7.7 117.5C6.8 118.3 6.4 119.1 6.4 120C6.4 122.1 9.3 122.9 11.4 122.9C22.1 122.9 31.8 108.9 37.5 101.6C35.9 101.6 33.6 101.7 30.1 101.8C29.4 101.8 28 101.9 28.2 101.3C28.3 100.9 29.7 100.8 31.1 100.7C32.9 100.5 35.6 100.4 38.5 100.3C43.8 93.9 51.7 86.4 55.8 83.7Z" fill="#221F1F"/>
</svg>
