<svg width="219" height="97" viewBox="0 0 219 97" fill="none" xmlns="http://www.w3.org/2000/svg">
<path d="M13.6648 37.1C13.6648 38.375 13.9648 39.2 14.4898 39.95C14.7148 40.25 14.8648 40.325 14.7898 40.475C14.7148 40.625 14.4148 40.475 14.1898 40.25C13.3648 39.425 12.8398 38.15 12.8398 36.425C12.8398 32.075 14.9398 27.95 17.7898 24.2C23.1898 17.525 30.4648 13.1 34.8148 13.55C37.4398 13.85 38.1148 16.1 37.8148 18.95C37.5898 21.8 35.4148 27.05 32.1898 31.025C27.0898 37.25 18.7648 42.275 11.9398 42.125C7.51484 42.05 4.36484 39.65 4.36484 34.925C4.36484 29.975 7.21484 24.275 12.0898 19.4C17.8648 13.7 26.9398 9.275 34.7398 9.65C37.5898 9.8 40.0648 11.075 40.2898 13.775C40.4398 15.2 39.8398 16.7 39.1648 17.45C38.8648 17.825 38.2648 18.275 38.1148 18.05C38.0398 17.825 38.2648 17.825 38.7148 17.15C39.1648 16.475 39.6898 15.275 39.4648 13.85C39.2398 11.9 37.1398 10.7 34.7398 10.625C28.0648 10.325 18.9148 17.075 15.0148 21.425C10.5898 26.45 7.96484 32.3 7.96484 36.575C7.96484 39.2 9.31484 41.3 12.6898 41.45C17.8648 41.675 23.7898 37.55 29.7898 30.05C33.0148 26 36.0148 20.825 36.3898 17.15C36.6148 15.5 36.0148 14.45 34.7398 14.3C30.9148 13.925 24.2398 18.65 19.2148 24.95C15.6148 29.525 13.6648 34.175 13.6648 37.1ZM55.8468 41.495C48.3318 41.495 42.9318 38.165 42.9318 30.11V7.52H47.5218V29.705C47.5218 35.195 50.5818 37.58 55.9368 37.58C61.1118 37.58 64.1718 35.195 64.1718 29.705V7.52H68.7618V30.11C68.7618 38.165 63.1818 41.495 55.8468 41.495ZM54.1368 5.675L50.1318 0.0499988H55.2618L57.6468 5.675H54.1368ZM87.1095 41V7.52H91.9245L105.65 28.49C107.27 30.965 109.385 35.15 109.385 35.15H109.52C109.52 35.15 109.205 30.785 109.205 27.995V7.52H113.525V41H108.755L95.0745 20.03C93.4545 17.51 91.2495 13.415 91.2495 13.415H91.1595C91.1595 13.415 91.4295 17.78 91.4295 20.48V41H87.1095ZM135.584 41.72C125.459 41.72 119.204 34.25 119.204 24.26C119.204 14.225 125.459 6.8 135.584 6.8C145.664 6.8 152.009 14.225 152.009 24.26C152.009 34.25 145.664 41.72 135.584 41.72ZM135.584 37.67C143.189 37.67 147.239 31.91 147.239 24.26C147.239 16.565 143.189 10.76 135.584 10.76C127.979 10.76 123.884 16.565 123.884 24.26C123.884 31.91 127.979 37.67 135.584 37.67ZM170.017 41.495C162.502 41.495 157.102 38.165 157.102 30.11V7.52H161.692V29.705C161.692 35.195 164.752 37.58 170.107 37.58C175.282 37.58 178.342 35.195 178.342 29.705V7.52H182.932V30.11C182.932 38.165 177.352 41.495 170.017 41.495ZM202.051 41.675C192.691 41.675 188.056 36.545 187.696 30.155H192.241C192.781 35.195 196.111 37.985 202.186 37.985C206.641 37.985 209.881 36.005 209.881 31.955C209.881 27.59 206.011 26.555 200.161 25.25C194.176 23.99 189.091 22.28 189.091 15.845C189.091 10.22 193.816 6.89 200.701 6.89C208.936 6.89 212.626 11.03 213.436 16.745H208.981C208.396 12.695 205.471 10.49 200.746 10.49C196.336 10.49 193.456 12.29 193.456 15.62C193.456 19.265 197.101 20.3 202.141 21.335C208.621 22.64 214.516 24.305 214.516 31.775C214.516 38.12 209.296 41.675 202.051 41.675ZM0.806621 66.57V62.52H27.4466V66.57H16.4216V96H11.7866V66.57H0.806621ZM32.32 96V62.52H47.98C53.965 62.52 58.015 66.21 58.015 71.745C58.015 75.84 56.35 78.72 51.895 80.115V80.25C55.675 81.375 56.755 83.625 57.07 88.44C57.475 93.705 57.925 95.325 58.6 95.775V96H53.695C52.93 95.37 52.84 93.84 52.48 88.485C52.165 83.76 50.185 82.05 45.82 82.05H36.91V96H32.32ZM36.91 66.48V78.36H46.495C51.04 78.36 53.29 76.065 53.29 72.42C53.29 68.505 51.445 66.48 46.72 66.48H36.91ZM78.9488 96.72C68.8238 96.72 62.5688 89.25 62.5688 79.26C62.5688 69.225 68.8238 61.8 78.9488 61.8C89.0288 61.8 95.3738 69.225 95.3738 79.26C95.3738 89.25 89.0288 96.72 78.9488 96.72ZM78.9488 92.67C86.5538 92.67 90.6038 86.91 90.6038 79.26C90.6038 71.565 86.5538 65.76 78.9488 65.76C71.3438 65.76 67.2488 71.565 67.2488 79.26C67.2488 86.91 71.3438 92.67 78.9488 92.67ZM113.382 96.495C105.867 96.495 100.467 93.165 100.467 85.11V62.52H105.057V84.705C105.057 90.195 108.117 92.58 113.472 92.58C118.647 92.58 121.707 90.195 121.707 84.705V62.52H126.297V85.11C126.297 93.165 120.717 96.495 113.382 96.495ZM141.601 96L130.036 62.52H134.986L142.321 84.84C143.131 87.27 144.301 91.995 144.301 91.995H144.391C144.391 91.995 145.561 87.18 146.326 84.84L153.571 62.52H158.341L146.641 96H141.601ZM162.574 96V62.52H186.379V66.57H167.164V76.695H184.534V80.52H167.164V91.815H186.874V96H162.574ZM192.545 96V62.52H208.205C214.19 62.52 218.24 66.21 218.24 71.745C218.24 75.84 216.575 78.72 212.12 80.115V80.25C215.9 81.375 216.98 83.625 217.295 88.44C217.7 93.705 218.15 95.325 218.825 95.775V96H213.92C213.155 95.37 213.065 93.84 212.705 88.485C212.39 83.76 210.41 82.05 206.045 82.05H197.135V96H192.545ZM197.135 66.48V78.36H206.72C211.265 78.36 213.515 76.065 213.515 72.42C213.515 68.505 211.67 66.48 206.945 66.48H197.135Z" fill="#221F1F"/>
</svg>
