<svg width="46" height="43" viewBox="0 0 46 43" fill="none" xmlns="http://www.w3.org/2000/svg">
<rect x="0.5" y="0.5" width="45" height="42" rx="21" stroke="#FFFAEA"/>
<path d="M29.8114 12.5396L29.7534 12.7083H29.575H14.2502C14.0969 12.7084 13.9454 12.7453 13.8076 12.8163C13.6696 12.8874 13.5488 12.991 13.4549 13.1196C13.361 13.2481 13.2969 13.3981 13.2681 13.5576C13.2393 13.7172 13.2468 13.8815 13.2898 14.0375L15.2708 21.2053C15.2708 21.2054 15.2708 21.2055 15.2708 21.2056C15.483 21.9634 15.9267 22.6283 16.5338 23.1015C17.1408 23.5745 17.8786 23.8308 18.6368 23.8333C18.6369 23.8333 18.637 23.8333 18.6371 23.8333L29.25 23.8333C29.6505 23.8333 30.0329 23.9978 30.3135 24.2878C30.5939 24.5775 30.75 24.9687 30.75 25.375C30.75 25.7813 30.5939 26.1725 30.3135 26.4622C30.0329 26.7522 29.6505 26.9167 29.25 26.9167H14.25C13.9875 26.9167 13.734 27.0244 13.5458 27.2188C13.3573 27.4136 13.25 27.6795 13.25 27.9583C13.25 28.2372 13.3573 28.5031 13.5458 28.6978C13.734 28.8923 13.9875 29 14.25 29H29.25H29.2502C30.1438 29.0006 31.0052 28.6471 31.6564 28.0097C32.3079 27.3721 32.6993 26.499 32.7476 25.5696C32.7958 24.6403 32.4971 23.7284 31.9149 23.0218C31.3329 22.3155 30.5125 21.8686 29.6238 21.7704L29.3321 21.7382L29.4103 21.4553L31.4525 14.0713V14.065L31.4615 14.0324L31.6552 13.3285L31.6552 13.3284L31.6556 13.3272C31.7453 13.0074 31.9333 12.7248 32.1931 12.5225C32.4529 12.3201 32.7704 12.2094 33.0979 12.2083H33.0988H34.25C34.5125 12.2083 34.766 12.1006 34.9542 11.9062C35.1427 11.7114 35.25 11.4455 35.25 11.1667C35.25 10.8878 35.1427 10.6219 34.9542 10.4272C34.766 10.2327 34.5125 10.125 34.25 10.125H33.1006C32.3808 10.1284 31.6787 10.3611 31.0901 10.7925C30.5012 11.2241 30.0541 11.8339 29.8114 12.5396ZM15.6665 15.1082L15.5791 14.7917H15.9075H28.8425H29.171L29.0835 15.1083L27.6172 20.4144L27.6172 20.4145L27.2985 21.5667L27.2477 21.75H27.0575L18.6362 21.75L18.6356 21.75C18.3076 21.7492 17.9897 21.6384 17.7295 21.4357C17.4694 21.2331 17.2813 20.9499 17.1917 20.6296L17.1915 20.6288L15.6665 15.1082ZM28.2747 31.0739C28.0076 30.8895 27.6945 30.7917 27.375 30.7917C26.9467 30.7917 26.5343 30.9674 26.2288 31.283C25.9231 31.5989 25.75 32.029 25.75 32.4792C25.75 32.8147 25.8463 33.1421 26.0259 33.4198C26.2055 33.6975 26.4598 33.9126 26.7558 34.0393C27.0518 34.166 27.3769 34.199 27.6905 34.1346C28.0041 34.0701 28.2934 33.9107 28.5212 33.6753C28.7491 33.4398 28.9052 33.1388 28.9685 32.8099C29.0318 32.481 28.9992 32.1401 28.8752 31.8307C28.7512 31.5214 28.5418 31.2584 28.2747 31.0739ZM18.2747 31.0739C18.0076 30.8895 17.6945 30.7917 17.375 30.7917C16.9467 30.7917 16.5343 30.9674 16.2288 31.283C15.9231 31.5989 15.75 32.029 15.75 32.4792C15.75 32.8147 15.8463 33.1421 16.0259 33.4198C16.2055 33.6975 16.4598 33.9126 16.7558 34.0393C17.0518 34.166 17.3769 34.199 17.6905 34.1346C18.0041 34.0701 18.2934 33.9107 18.5212 33.6753C18.7491 33.4398 18.9052 33.1388 18.9685 32.8099C19.0318 32.481 18.9992 32.1401 18.8752 31.8307C18.7512 31.5214 18.5418 31.2584 18.2747 31.0739Z" fill="#FFFAEA" stroke="#191819" stroke-width="0.5"/>
</svg>
