<svg width="482" height="250" viewBox="0 0 482 250" fill="none" xmlns="http://www.w3.org/2000/svg">
<path d="M3.465 63V29.52H8.055V58.815H25.38V63H3.465ZM27.6177 63L39.8577 29.52H44.9877L57.3177 63H52.2777L48.9477 53.235H35.7627L32.3427 63H27.6177ZM40.3077 40.275L37.0227 49.635H47.7327L44.5377 40.275C43.4127 37.035 42.5127 33.165 42.5127 33.165H42.3777C42.3777 33.165 41.3877 37.17 40.3077 40.275ZM140.664 63V29.52H145.254V63H140.664ZM152.264 63V29.52H176.069V33.57H156.854V43.695H174.224V47.52H156.854V58.815H176.564V63H152.264ZM162.974 27.675L158.969 22.05H164.099L166.484 27.675H162.974ZM182.235 63V29.52H197.895C203.88 29.52 207.93 33.21 207.93 38.745C207.93 42.84 206.265 45.72 201.81 47.115V47.25C205.59 48.375 206.67 50.625 206.985 55.44C207.39 60.705 207.84 62.325 208.515 62.775V63H203.61C202.845 62.37 202.755 60.84 202.395 55.485C202.08 50.76 200.1 49.05 195.735 49.05H186.825V63H182.235ZM186.825 33.48V45.36H196.41C200.955 45.36 203.205 43.065 203.205 39.42C203.205 35.505 201.36 33.48 196.635 33.48H186.825ZM213.743 63V29.52H237.548V33.57H218.333V43.695H235.703V47.52H218.333V58.815H238.043V63H213.743ZM267.952 63.675C258.592 63.675 253.957 58.545 253.597 52.155H258.142C258.682 57.195 262.012 59.985 268.087 59.985C272.542 59.985 275.782 58.005 275.782 53.955C275.782 49.59 271.912 48.555 266.062 47.25C260.077 45.99 254.992 44.28 254.992 37.845C254.992 32.22 259.717 28.89 266.602 28.89C274.837 28.89 278.527 33.03 279.337 38.745H274.882C274.297 34.695 271.372 32.49 266.647 32.49C262.237 32.49 259.357 34.29 259.357 37.62C259.357 41.265 263.002 42.3 268.042 43.335C274.522 44.64 280.417 46.305 280.417 53.775C280.417 60.12 275.197 63.675 267.952 63.675ZM283.072 63L295.312 29.52H300.442L312.772 63H307.732L304.402 53.235H291.217L287.797 63H283.072ZM295.762 40.275L292.477 49.635H303.187L299.992 40.275C298.867 37.035 297.967 33.165 297.967 33.165H297.832C297.832 33.165 296.842 37.17 295.762 40.275ZM317.103 63V29.52H321.918L335.643 50.49C337.263 52.965 339.378 57.15 339.378 57.15H339.513C339.513 57.15 339.198 52.785 339.198 49.995V29.52H343.518V63H338.748L325.068 42.03C323.448 39.51 321.243 35.415 321.243 35.415H321.153C321.153 35.415 321.423 39.78 321.423 42.48V63H317.103ZM362.742 63.675C353.382 63.675 348.747 58.545 348.387 52.155H352.932C353.472 57.195 356.802 59.985 362.877 59.985C367.332 59.985 370.572 58.005 370.572 53.955C370.572 49.59 366.702 48.555 360.852 47.25C354.867 45.99 349.782 44.28 349.782 37.845C349.782 32.22 354.507 28.89 361.392 28.89C369.627 28.89 373.317 33.03 374.127 38.745H369.672C369.087 34.695 366.162 32.49 361.437 32.49C357.027 32.49 354.147 34.29 354.147 37.62C354.147 41.265 357.792 42.3 362.832 43.335C369.312 44.64 375.207 46.305 375.207 53.775C375.207 60.12 369.987 63.675 362.742 63.675ZM0.855 121L13.095 87.52H18.225L30.555 121H25.515L22.185 111.235H9L5.58 121H0.855ZM13.545 98.275L10.26 107.635H20.97L17.775 98.275C16.65 95.035 15.75 91.165 15.75 91.165H15.615C15.615 91.165 14.625 95.17 13.545 98.275ZM34.8859 121V87.52H39.4759V116.815H56.8009V121H34.8859ZM74.3368 121.675C64.7968 121.675 58.5868 114.385 58.5868 104.26C58.5868 94.405 64.5268 86.8 74.4718 86.8C78.3868 86.8 81.5368 87.925 83.7868 89.77C86.1718 91.705 87.6118 94.45 88.0618 97.645H83.4718C82.7068 93.55 79.5118 90.805 74.3818 90.805C67.2718 90.805 63.2668 96.565 63.2668 104.26C63.2668 112.27 67.6768 117.67 74.4268 117.67C80.5018 117.67 83.4268 113.575 83.8318 108.805H88.4218C88.3768 112.135 86.8018 115.825 84.4168 118.12C82.0768 120.46 78.6568 121.675 74.3368 121.675ZM108.981 121.72C98.8555 121.72 92.6005 114.25 92.6005 104.26C92.6005 94.225 98.8555 86.8 108.981 86.8C119.061 86.8 125.406 94.225 125.406 104.26C125.406 114.25 119.061 121.72 108.981 121.72ZM108.981 117.67C116.586 117.67 120.636 111.91 120.636 104.26C120.636 96.565 116.586 90.76 108.981 90.76C101.376 90.76 97.2805 96.565 97.2805 104.26C97.2805 111.91 101.376 117.67 108.981 117.67ZM146.158 121.72C136.033 121.72 129.778 114.25 129.778 104.26C129.778 94.225 136.033 86.8 146.158 86.8C156.238 86.8 162.583 94.225 162.583 104.26C162.583 114.25 156.238 121.72 146.158 121.72ZM146.158 117.67C153.763 117.67 157.813 111.91 157.813 104.26C157.813 96.565 153.763 90.76 146.158 90.76C138.553 90.76 134.458 96.565 134.458 104.26C134.458 111.91 138.553 117.67 146.158 117.67ZM168.216 121V87.52H172.806V116.815H190.131V121H168.216ZM236.002 123.97L230.557 119.56C228.172 120.955 225.292 121.72 222.052 121.72C211.927 121.72 205.672 114.25 205.672 104.26C205.672 94.225 211.927 86.8 222.052 86.8C232.132 86.8 238.432 94.225 238.432 104.26C238.432 109.57 236.632 114.16 233.482 117.31L238.297 121.18L236.002 123.97ZM222.052 117.76C223.942 117.76 225.607 117.4 227.047 116.725L222.727 113.215L224.977 110.425L230.107 114.565C232.447 112.135 233.707 108.49 233.707 104.26C233.707 96.565 229.657 90.76 222.052 90.76C214.447 90.76 210.352 96.565 210.352 104.26C210.352 111.91 214.447 117.76 222.052 117.76ZM256.441 121.495C248.926 121.495 243.526 118.165 243.526 110.11V87.52H248.116V109.705C248.116 115.195 251.176 117.58 256.531 117.58C261.706 117.58 264.766 115.195 264.766 109.705V87.52H269.356V110.11C269.356 118.165 263.776 121.495 256.441 121.495ZM275.84 121V87.52H280.43V121H275.84ZM378.139 121V87.52H382.729V116.815H400.054V121H378.139ZM404.902 121V87.52H428.707V91.57H409.492V101.695H426.862V105.52H409.492V116.815H429.202V121H404.902ZM12.375 179L0.81 145.52H5.76L13.095 167.84C13.905 170.27 15.075 174.995 15.075 174.995H15.165C15.165 174.995 16.335 170.18 17.1 167.84L24.345 145.52H29.115L17.415 179H12.375ZM33.3478 179V145.52H49.0078C54.9928 145.52 59.0428 149.21 59.0428 154.745C59.0428 158.84 57.3778 161.72 52.9228 163.115V163.25C56.7028 164.375 57.7828 166.625 58.0978 171.44C58.5028 176.705 58.9528 178.325 59.6278 178.775V179H54.7228C53.9578 178.37 53.8678 176.84 53.5078 171.485C53.1928 166.76 51.2128 165.05 46.8478 165.05H37.9378V179H33.3478ZM37.9378 149.48V161.36H47.5228C52.0678 161.36 54.3178 159.065 54.3178 155.42C54.3178 151.505 52.4728 149.48 47.7478 149.48H37.9378ZM62.2466 179L74.4866 145.52H79.6166L91.9466 179H86.9066L83.5766 169.235H70.3916L66.9716 179H62.2466ZM74.9366 156.275L71.6516 165.635H82.3616L79.1666 156.275C78.0416 153.035 77.1416 149.165 77.1416 149.165H77.0066C77.0066 149.165 76.0166 153.17 74.9366 156.275ZM96.3675 179V145.52H100.958V179H96.3675ZM146.065 179L144.85 174.275H144.715C142.33 177.92 138.73 179.72 134.365 179.72C129.685 179.72 125.77 177.92 123.025 174.86C120.235 171.8 118.66 167.48 118.66 162.395C118.66 157.355 120.145 152.9 122.935 149.75C125.635 146.69 129.595 144.845 134.77 144.845C142.645 144.845 147.19 149.075 148.45 155.24H143.68C142.69 151.46 139.855 148.805 134.725 148.805C126.895 148.805 123.34 154.7 123.34 162.395C123.34 170.36 127.975 175.715 134.59 175.715C141.25 175.715 144.4 171.215 144.445 165.905V165.185H134.725V161.27H148.99V179H146.065ZM170.196 179.72C160.071 179.72 153.816 172.25 153.816 162.26C153.816 152.225 160.071 144.8 170.196 144.8C180.276 144.8 186.621 152.225 186.621 162.26C186.621 172.25 180.276 179.72 170.196 179.72ZM170.196 175.67C177.801 175.67 181.851 169.91 181.851 162.26C181.851 154.565 177.801 148.76 170.196 148.76C162.591 148.76 158.496 154.565 158.496 162.26C158.496 169.91 162.591 175.67 170.196 175.67ZM163.401 143.675L167.946 138.59H172.581L176.991 143.675H172.671L170.241 140.93H170.151L167.631 143.675H163.401ZM204.629 179.495C197.114 179.495 191.714 176.165 191.714 168.11V145.52H196.304V167.705C196.304 173.195 199.364 175.58 204.719 175.58C209.894 175.58 212.954 173.195 212.954 167.705V145.52H217.544V168.11C217.544 176.165 211.964 179.495 204.629 179.495ZM221.869 149.57V145.52H248.509V149.57H237.484V179H232.849V149.57H221.869ZM265.335 179V145.52H277.71C287.7 145.52 292.65 152.36 292.65 162.395C292.65 172.385 287.43 179 277.395 179H265.335ZM269.97 174.995H277.215C284.775 174.995 287.88 170.09 287.88 162.395C287.88 154.7 285.09 149.525 277.485 149.525H269.97V174.995ZM298.294 179V145.52H322.099V149.57H302.884V159.695H320.254V163.52H302.884V174.815H322.594V179H298.294ZM340.218 179V145.52H344.808V174.815H362.133V179H340.218ZM364.371 179L376.611 145.52H381.741L394.071 179H389.031L385.701 169.235H372.516L369.096 179H364.371ZM377.061 156.275L373.776 165.635H384.486L381.291 156.275C380.166 153.035 379.266 149.165 379.266 149.165H379.131C379.131 149.165 378.141 153.17 377.061 156.275ZM3.465 237V203.52H17.865C21.33 203.52 23.985 204.465 25.875 206.355C27.27 207.795 28.125 209.73 28.125 212.16C28.125 215.805 26.055 218.145 22.455 219.18V219.315C26.55 220.26 29.475 222.96 29.475 227.37C29.475 230.025 28.53 232.275 26.91 233.895C25.02 235.875 22.14 237 18.54 237H3.465ZM8.055 217.785H17.235C21.15 217.785 23.49 215.85 23.49 212.475C23.49 209.325 21.375 207.48 17.775 207.48H8.055V217.785ZM8.055 232.95H18.27C20.565 232.95 22.23 232.365 23.31 231.285C24.255 230.385 24.795 229.08 24.795 227.505C24.795 223.5 21.96 221.52 18 221.52H8.055V232.95ZM34.6683 237V203.52H39.2583V237H34.6683ZM46.2677 237V203.52H70.0727V207.57H50.8577V217.695H68.2277V221.52H50.8577V232.815H70.5677V237H46.2677ZM56.9777 201.675L52.9727 196.05H58.1027L60.4877 201.675H56.9777ZM76.2384 237V203.52H91.8984C97.8834 203.52 101.933 207.21 101.933 212.745C101.933 216.84 100.268 219.72 95.8134 221.115V221.25C99.5934 222.375 100.673 224.625 100.988 229.44C101.393 234.705 101.843 236.325 102.518 236.775V237H97.6134C96.8484 236.37 96.7584 234.84 96.3984 229.485C96.0834 224.76 94.1034 223.05 89.7384 223.05H80.8284V237H76.2384ZM80.8284 207.48V219.36H90.4134C94.9584 219.36 97.2084 217.065 97.2084 213.42C97.2084 209.505 95.3634 207.48 90.6384 207.48H80.8284ZM107.747 237V203.52H131.552V207.57H112.337V217.695H129.707V221.52H112.337V232.815H132.047V237H107.747ZM151.021 227.28L149.851 214.005V203.52H154.396V214.005L153.316 227.28H151.021ZM149.716 237V232.05H154.621V237H149.716Z" fill="#221F1F"/>
<path d="M73.6017 63V29.52H88.0017C91.4667 29.52 94.1217 30.465 96.0117 32.355C97.4067 33.795 98.2617 35.73 98.2617 38.16C98.2617 41.805 96.1917 44.145 92.5917 45.18V45.315C96.6867 46.26 99.6117 48.96 99.6117 53.37C99.6117 56.025 98.6667 58.275 97.0467 59.895C95.1567 61.875 92.2767 63 88.6767 63H73.6017ZM78.1917 43.785H87.3717C91.2867 43.785 93.6267 41.85 93.6267 38.475C93.6267 35.325 91.5117 33.48 87.9117 33.48H78.1917V43.785ZM78.1917 58.95H88.4067C90.7017 58.95 92.3667 58.365 93.4467 57.285C94.3917 56.385 94.9317 55.08 94.9317 53.505C94.9317 49.5 92.0967 47.52 88.1367 47.52H78.1917V58.95ZM357.173 95.35C357.173 95.44 357.128 95.665 356.678 95.485C356.048 95.26 355.463 95.215 354.968 95.215C352.268 95.215 347.138 99.085 341.513 104.44C337.643 108.13 332.063 115.51 330.083 118.66C328.688 120.91 327.968 122.26 327.248 122.035C326.888 121.99 326.753 121.675 326.753 121.18C326.753 119.74 328.328 117.13 330.938 113.485C331.523 112.315 331.793 111.19 331.793 110.245C331.793 109.21 331.523 108.31 331.028 107.545C327.743 110.74 325.043 113.35 322.433 115.465C313.253 123.115 306.773 124.735 302.498 124.735C299.258 124.735 295.613 123.61 295.613 119.2C295.613 115.06 298.943 109.84 304.883 106.24C308.483 104.035 313.118 102.73 316.808 102.325C316.223 101.875 315.773 100.93 315.773 99.76C315.773 94.135 323.738 90.67 332.693 90.67C341.513 90.67 347.273 92.335 352.268 93.64C353.078 93.865 355.328 94.45 356.633 94.99C357.038 95.125 357.173 95.215 357.173 95.35ZM317.438 102.28C317.978 102.235 318.923 102.19 319.463 102.19C324.413 102.19 328.328 103.585 330.488 105.88C333.593 103.315 337.013 100.93 340.613 98.95C345.338 96.385 349.838 94.9 353.663 94.675C349.343 93.64 341.603 92.245 332.648 92.245C323.783 92.245 316.313 95.44 316.313 99.94C316.313 101.065 316.853 101.965 317.438 102.28ZM352.988 95.17C349.208 95.62 344.843 97.555 340.793 99.985C337.238 102.19 334.088 104.71 331.478 107.14C332.063 107.995 332.468 109.03 332.468 110.2C332.468 110.74 332.378 111.28 332.198 111.865C335.213 108.085 338.138 105.295 340.838 102.865C345.248 98.86 349.253 96.16 352.988 95.17ZM330.038 106.285C327.878 104.215 324.143 103.045 319.958 103.045C316.223 103.045 310.238 104.755 305.873 107.5C299.888 111.235 296.333 115.285 296.333 119.245C296.333 123.34 299.663 124.195 302.453 124.195C307.763 124.195 313.703 120.595 321.488 113.89C324.053 111.595 326.798 108.94 330.038 106.285Z" fill="#FFFAEA"/>
<path d="M115.08 63.72C112.04 63.72 108.6 62.84 108.6 59.8C108.6 57.24 111.16 55.32 113.56 55.32C114.92 55.32 116.04 55.96 116.04 57.24C116.04 58.52 114.92 59.16 113.96 59.56C113.16 59.88 112.2 60.28 112.04 61.16C111.8 62.52 113.64 63.08 115.08 63.08C120.28 63.08 126.28 57.4 126.6 50.84C126.84 46.92 123.48 45.64 121.96 45.8C121 45.96 120.52 46.04 119.64 46.04C118.6 46.04 117.64 45.88 117.72 45.4C117.8 44.84 119.08 44.76 119.88 44.76C120.92 44.76 121.56 44.92 122.28 45C125.72 44.52 129.32 41.4 130.2 37.72C130.84 35.16 130.28 33.16 128.44 32.04C127.8 32.68 127.16 33.24 126.6 33.88C123.64 36.84 120.84 40.68 116.68 46.2C109.32 56.2 100.6 64.6 91.32 64.6C86.36 64.6 82.84 62.92 82.84 58.52C82.84 53.88 86.52 47.16 96.04 40.2C105.16 33.56 116.2 30.44 124.52 30.44C125.64 30.44 126.68 30.52 127.64 30.68C130.44 28.68 133.08 27.24 135.32 26.36C137.64 25.4 140.52 24.68 143.24 24.68C145.8 24.68 147.96 25.48 148.84 26.84C149.08 27.24 149.16 27.48 149 27.56C148.84 27.64 148.76 27.4 148.52 27.16C147.64 26.12 145.72 25.32 143.32 25.32C141 25.32 138.2 25.96 135.8 27.08C133.96 27.88 131.72 29.32 129.48 31.16C132.44 32.28 134.44 34.44 133.88 37.72C133.08 42.12 127.56 44.76 123.72 45.32V45.4C128.6 46.2 130.92 49 130.76 52.28C130.44 59 123.16 63.72 115.08 63.72ZM86.04 58.6C86.04 61.72 87.72 63.88 91.24 63.88C98.6 63.88 103.64 56.52 109.8 48.44C115 41.64 120.84 35.96 124.6 32.92C125.24 32.36 125.96 31.88 126.6 31.4C125.88 31.24 125 31.16 124.04 31.16C116.36 31.16 105.88 34.28 97.4 40.76C88.68 47.48 86.04 54.44 86.04 58.6Z" fill="black"/>
<path d="M299.68 117.44C299.68 114.64 301.76 112.72 303.84 112.56C305.68 112.48 306.8 113.44 306.8 114.96C306.8 116.16 306.08 116.88 304.96 117.68C304.16 118.24 303.52 118.8 303.52 119.68C303.52 121.36 306.16 122.72 311.36 122.32C317.6 121.76 323.6 118.4 328 115.36C326.32 113.92 323.6 110.88 323.6 106.32C323.6 101.52 327.36 97.76 333.12 97.92C337.44 98 340.48 101.52 341.44 103.68C342.48 102.64 344.24 101.04 345.2 100.16C349.44 96.32 353.12 93.12 357.12 90.96C360.16 89.28 363.68 87.92 366.8 87.92C368.32 87.92 369.2 88.4 369.6 88.72C370.08 89.12 370.4 89.68 370.16 89.84C370 89.92 369.84 89.68 369.28 89.28C368.96 89.04 368.16 88.8 367.52 88.8C366.64 88.8 365.76 89.04 364.96 89.68C363.2 91.12 360.32 94.56 358.48 97.2C353.52 104.08 348.08 112.32 343.52 119.76C344.8 119.68 346.4 119.2 348 118.4C349.68 117.52 351.76 115.92 353.04 114.72C353.44 114.32 353.68 114.32 353.84 114.48C354 114.64 353.76 114.96 353.2 115.52C352.08 116.56 350.24 118.08 348.24 119.12C346.56 120 344.64 120.48 343.12 120.56C342 121.76 341.2 122.32 340 122.56C337.68 123.04 337.76 122 338.08 121.44L338.72 120.24C337.28 120.08 334.88 119.36 333.52 118.8C331.76 118.08 329.84 116.96 328.8 116C325.76 118.16 318.64 122.8 311.12 123.36C304.88 123.84 299.68 121.92 299.68 117.44ZM333.12 99.12C328.96 99.12 326.72 102.72 326.56 106.48C326.4 109.84 327.92 112.96 329.2 114.4C330.88 113.04 332.88 111.36 335.04 109.44C336.96 107.76 338.8 106 340.72 104.32C339.12 101.36 336.48 99.12 333.12 99.12ZM342.64 114.08C344.48 111.2 349.52 103.92 352.32 100.32C357.2 93.92 361.52 90.48 365.2 88.72V88.64C363.36 88.8 360.4 89.84 357.6 91.44C353.84 93.6 350 96.8 346.88 99.68C345.12 101.28 343.52 102.8 341.84 104.4C342.24 105.52 342.72 107.12 342.88 109.6C342.96 111.04 342.88 112.64 342.64 114.08ZM329.76 115.12C330.64 116.08 332.4 117.2 333.92 117.92C335.2 118.48 337.68 119.28 339.12 119.44C339.76 118.32 341.2 116.16 341.52 115.6C342.08 114.48 342.24 111.92 342.08 109.68C341.92 107.76 341.6 106.24 341.12 105.04C339.28 106.72 337.36 108.48 335.52 110.16C333.36 112.08 331.52 113.68 329.76 115.12Z" fill="black"/>
</svg>
