<svg width="205" height="43" viewBox="0 0 205 43" fill="none" xmlns="http://www.w3.org/2000/svg">
<rect x="164.5" y="1.5" width="40" height="40" rx="20" stroke="#FFFAEA"/>
<path d="M173.21 37.3115V35.8115C173.21 30.8409 177.127 26.8115 181.96 26.8115H187.793C192.626 26.8115 196.543 30.8409 196.543 35.8115V37.3115" stroke="#FFFAEA" stroke-linecap="round"/>
<path d="M184.876 22.3115C181.655 22.3115 179.043 19.6252 179.043 16.3115C179.043 12.9978 181.655 10.3115 184.876 10.3115C188.098 10.3115 190.71 12.9978 190.71 16.3115C190.71 19.6252 188.098 22.3115 184.876 22.3115Z" stroke="#FFFAEA" stroke-linecap="round"/>
<rect x="96.5" y="0.5" width="45" height="42" rx="21" stroke="#FFFAEA"/>
<path d="M125.811 12.5396L125.753 12.7083H125.575H110.25C110.097 12.7084 109.945 12.7453 109.808 12.8163C109.67 12.8874 109.549 12.991 109.455 13.1196C109.361 13.2481 109.297 13.3981 109.268 13.5576C109.239 13.7172 109.247 13.8815 109.29 14.0375L111.271 21.2053C111.271 21.2054 111.271 21.2055 111.271 21.2056C111.483 21.9634 111.927 22.6283 112.534 23.1015C113.141 23.5745 113.879 23.8308 114.637 23.8333C114.637 23.8333 114.637 23.8333 114.637 23.8333L125.25 23.8333C125.651 23.8333 126.033 23.9978 126.314 24.2878C126.594 24.5775 126.75 24.9687 126.75 25.375C126.75 25.7813 126.594 26.1725 126.314 26.4622C126.033 26.7522 125.651 26.9167 125.25 26.9167H110.25C109.987 26.9167 109.734 27.0244 109.546 27.2188C109.357 27.4136 109.25 27.6795 109.25 27.9583C109.25 28.2372 109.357 28.5031 109.546 28.6978C109.734 28.8923 109.987 29 110.25 29H125.25H125.25C126.144 29.0006 127.005 28.6471 127.656 28.0097C128.308 27.3721 128.699 26.499 128.748 25.5696C128.796 24.6403 128.497 23.7284 127.915 23.0218C127.333 22.3155 126.513 21.8686 125.624 21.7704L125.332 21.7382L125.41 21.4553L127.453 14.0713V14.065L127.461 14.0324L127.655 13.3285L127.655 13.3284L127.656 13.3272C127.745 13.0074 127.933 12.7248 128.193 12.5225C128.453 12.3201 128.77 12.2094 129.098 12.2083H129.099H130.25C130.513 12.2083 130.766 12.1006 130.954 11.9062C131.143 11.7114 131.25 11.4455 131.25 11.1667C131.25 10.8878 131.143 10.6219 130.954 10.4272C130.766 10.2327 130.513 10.125 130.25 10.125H129.101C128.381 10.1284 127.679 10.3611 127.09 10.7925C126.501 11.2241 126.054 11.8339 125.811 12.5396ZM111.667 15.1082L111.579 14.7917H111.908H124.842H125.171L125.083 15.1083L123.617 20.4144L123.617 20.4145L123.298 21.5667L123.248 21.75H123.058L114.636 21.75L114.636 21.75C114.308 21.7492 113.99 21.6384 113.729 21.4357C113.469 21.2331 113.281 20.9499 113.192 20.6296L113.192 20.6288L111.667 15.1082ZM124.275 31.0739C124.008 30.8895 123.695 30.7917 123.375 30.7917C122.947 30.7917 122.534 30.9674 122.229 31.283C121.923 31.5989 121.75 32.029 121.75 32.4792C121.75 32.8147 121.846 33.1421 122.026 33.4198C122.205 33.6975 122.46 33.9126 122.756 34.0393C123.052 34.166 123.377 34.199 123.69 34.1346C124.004 34.0701 124.293 33.9107 124.521 33.6753C124.749 33.4398 124.905 33.1388 124.968 32.8099C125.032 32.481 124.999 32.1401 124.875 31.8307C124.751 31.5214 124.542 31.2584 124.275 31.0739ZM114.275 31.0739C114.008 30.8895 113.695 30.7917 113.375 30.7917C112.947 30.7917 112.534 30.9674 112.229 31.283C111.923 31.5989 111.75 32.029 111.75 32.4792C111.75 32.8147 111.846 33.1421 112.026 33.4198C112.205 33.6975 112.46 33.9126 112.756 34.0393C113.052 34.166 113.377 34.199 113.69 34.1346C114.004 34.0701 114.293 33.9107 114.521 33.6753C114.749 33.4398 114.905 33.1388 114.968 32.8099C115.032 32.481 114.999 32.1401 114.875 31.8307C114.751 31.5214 114.542 31.2584 114.275 31.0739Z" fill="#FFFAEA" stroke="black" stroke-width="0.5"/>
<path d="M17.232 27V15.096H25.376V16.536H18.864V20.104H24.288V21.496H18.864V27H17.232ZM27.1851 27V15.096H32.7531C34.8811 15.096 36.3211 16.408 36.3211 18.376C36.3211 19.832 35.7291 20.856 34.1451 21.352V21.4C35.4891 21.8 35.8731 22.6 35.9851 24.312C36.1291 26.184 36.2891 26.76 36.5291 26.92V27H34.7851C34.5131 26.776 34.4811 26.232 34.3531 24.328C34.2411 22.648 33.5371 22.04 31.9851 22.04H28.8171V27H27.1851ZM28.8171 16.504V20.728H32.2251C33.8411 20.728 34.6411 19.912 34.6411 18.616C34.6411 17.224 33.9851 16.504 32.3051 16.504H28.8171Z" fill="#FFFAEA"/>
<rect x="0.5" y="0.5" width="72" height="42" rx="21" stroke="#FFFAEA"/>
<path d="M49 18L55.5 26.4376" stroke="#FFFAEA" stroke-linecap="round"/>
<path d="M62 18L55.5 26.4376" stroke="#FFFAEA" stroke-linecap="round"/>
</svg>
