<?xml version="1.0" encoding="UTF-8"?>
<svg id="Layer_1" data-name="Layer 1" xmlns="http://www.w3.org/2000/svg" version="1.1" viewBox="0 0 510 90.9">
  <defs>
    <style>
      .cls-1 {
        fill: #fffaea;
        stroke-width: 0px;
      }
    </style>
  </defs>
  <path class="cls-1" d="M137.7,83.6V1.8h11.8l33.6,51.3c4,6.1,9.1,16.3,9.1,16.3h.3s-.8-10.7-.8-17.5V1.8h10.6v81.8h-11.7l-33.4-51.3c-4-6.2-9.3-16.2-9.3-16.2h-.2s.7,10.7.7,17.3v50.2h-10.7ZM219.4,83.6V1.8h11.2v81.8s-11.2,0-11.2,0ZM318.8,90.9l-13.3-10.8c-5.8,3.4-12.9,5.3-20.8,5.3-24.8,0-40-18.3-40-42.7S260,0,284.7,0s40,18.2,40,42.7-4.4,24.2-12.1,31.9l11.8,9.5-5.6,6.8ZM284.7,75.7c4.6,0,8.7-.9,12.2-2.5l-10.6-8.6,5.5-6.8,12.5,10.1c5.7-5.9,8.8-14.9,8.8-25.2,0-18.8-9.9-33-28.5-33s-28.6,14.2-28.6,33,10,33,28.6,33h.1ZM368.8,84.8c-18.4,0-31.6-8.1-31.6-27.8V1.8h11.2v54.2c0,13.4,7.5,19.2,20.6,19.2s20.1-5.8,20.1-19.2V1.8h11.2v55.2c0,19.7-13.6,27.8-31.6,27.8h0ZM416,83.6V1.8h58.2v9.9h-47v24.8h42.5v9.4h-42.5v27.6h48.2v10.2h-59.4ZM492.6,59.8l-2.9-32.4V1.8h11.1v25.6l-2.6,32.4s-5.6,0-5.6,0ZM489.4,83.6v-12.1h12v12.1h-12Z"/>
  <path class="cls-1" d="M73.3,57.5c-9.7,9.7-29.7,25.7-41.4,25.7-1.4,0-2.8,0-4.2-.2s-2-.2-2.9-.6c-4.9-2-2.5-8.4-.6-11.7,2.7-4.8,6.2-8.9,9.6-13.2,1.9-2.4,3.9-4.7,5.9-7s4.8-5.4,7.2-8.1c11.3-13,18-21.1,20-27.5,1.4-5.4-3.2-7.2-7.7-7.2-9.2,0-21.2,5.8-31.3,15.7-7.4,7.2-14.4,16.2-14.4,23.4s2.2,7.4,6.5,7.4,5-.9,6.5-1.8c1.8-1.1,2.2-2.2,2.7-1.8s-.9,2-2.2,2.9c-1.8,1.3-4.1,2.3-7.4,2.3-5.2-.2-8.6-3.2-9-8.8-.5-8.1,4.9-18.5,13.9-26.8,11-10.1,25.9-14,34.7-14s14.8,3.2,14.6,10.3c-.2,7.9-8.5,18-17.5,28.3-14,15.7-22,25-22.9,31-.5,2.9.7,4.1,2.5,4.3,4.3.5,13.1-4.9,19.8-9.7,11-8.1,17.1-14.2,26.5-25.2,5.2-5.9,18.9-21.1,32.9-32,3.1-2.3,10.8-7.9,14.6-7.4,3.2.4,2.2,4.3-1.1,8.1-4,4.3-9.5,8.5-13.5,11.3-5.8,4.3-9.2,6.7-16.4,12.6-1.8,2.2-3.6,4.3-5.8,7-2.2,2.7-4.3,5.5-6.4,8.3s-4,5.4-5.9,8.2-3.2,4.9-4.6,7.6-2,4-2.4,6.2-.6,2.8.3,3.8c.3.3.6.5,1,.7,2.4,1.1,5.2-.3,7.4-1.4s4.2-2.4,6.2-3.8c2.5-1.8,6.3-4.9,8.8-7.2,1.6-1.4,3.1-2.7,3.6-2.2.4.5-.2,1.1-1.8,2.7-3.2,3.1-7,6.1-9.5,8.1-3.1,2.3-9.2,7.2-15.8,7.2s-8.5-2.7-8.5-7.9,3.8-11.5,7.9-17.3h0ZM103.3,31.7c3.4-2.7,7.2-5.2,10.6-7.7,5.4-3.8,10.1-7.9,11.9-9.7,3.6-4,4.7-6.5,3.4-7-2-.7-5.9,2.7-9.7,6.8-5.2,5.4-10.8,11.3-16.2,17.6Z"/>
</svg>